<?xml version="1.0" encoding="UTF-8"?> <svg xmlns="http://www.w3.org/2000/svg" width="876" height="153" viewBox="0 0 876 153" fill="none"><path d="M191.978 68.0038C194.909 67.569 197.33 66.6522 199.241 65.2534C201.202 63.8472 202.592 62.0741 203.412 59.9342C204.275 57.7348 204.502 55.2579 204.095 52.5033C203.68 49.6968 202.745 47.3922 201.29 45.5897C199.879 43.7276 198.031 42.4083 195.747 41.6318C193.513 40.8477 190.931 40.673 188 41.1078C185.119 41.5351 182.698 42.4519 180.737 43.8582C178.776 45.2645 177.364 47.0673 176.501 49.2667C175.681 51.4066 175.479 53.8798 175.894 56.6863C176.302 59.4409 177.211 61.7492 178.623 63.6112C180.077 65.4137 181.947 66.7033 184.231 67.4799C186.515 68.2565 189.097 68.4311 191.978 68.0038Z" fill="#CAE746"></path><path d="M151.898 72.2155C149.977 73.6219 147.543 74.5437 144.595 74.9809C141.699 75.4105 139.102 75.2349 136.806 74.4541C134.509 73.6732 132.63 72.3766 131.167 70.5642C129.748 68.692 128.833 66.3711 128.424 63.6014C128.006 60.7795 128.21 58.2928 129.034 56.1412C129.901 53.9298 131.321 52.1171 133.293 50.7031C135.265 49.2891 137.699 48.3673 140.595 47.9377C143.543 47.5005 146.139 47.6761 148.385 48.4645C150.681 49.2453 152.539 50.5718 153.959 52.444C155.421 54.2565 156.361 56.5736 156.779 59.3955C157.188 62.1652 156.959 64.6557 156.092 66.8671C155.268 69.0187 153.87 70.8015 151.898 72.2155Z" fill="#CAE746"></path><path fill-rule="evenodd" clip-rule="evenodd" d="M242 75.5437C242 104.824 225.621 129.69 199.574 142.235C174.368 151.092 149.443 150.051 124.444 149.006C104.297 148.164 84.1021 147.32 63.6725 151.654C31.0109 158.582 45.5323 137.017 77.8669 126.919C89.0999 123.41 88.9157 115.24 77.1774 116.915C66.8779 116.915 38.6989 131.684 28.532 139.649C-15.6888 172.479 -13.1126 117.969 69.0698 79.5672C82.6448 71.2355 75.2289 63.4313 57.7196 73.0719C55.471 74.3101 52.1898 76.499 48.4357 79.0035C33.7442 88.8047 11.8086 103.439 16.1584 84.8321C21.6199 61.4709 78.6701 23.7233 104.432 11.6418C157.64 -13.9849 242 0.722465 242 75.5437ZM193.185 108.299C185.76 112.557 176.628 115.027 165.79 115.708C155.139 116.377 145.771 115.07 137.685 111.786C129.6 108.503 123.195 103.579 118.469 97.0148C113.918 90.2592 111.344 82.1155 110.747 72.5837C110.139 62.8721 111.676 54.4701 115.359 47.3777C119.217 40.0937 124.952 34.3167 132.564 30.0468C140.176 25.777 149.307 23.3074 159.959 22.6381C170.797 21.9571 180.165 23.2643 188.063 26.5596C196.148 29.8432 202.466 34.8628 207.017 41.6184C211.743 48.1825 214.41 56.3203 215.019 66.0319C215.616 75.5637 213.985 83.9716 210.127 91.2556C206.444 98.348 200.796 104.029 193.185 108.299Z" fill="#CAE746"></path><path d="M290 51.3706H308.929L313.01 76.5V117.263H294.081V73.6049L290 51.3706ZM336.019 49.6335C341.762 49.6335 346.674 50.9074 350.755 53.455C354.835 55.9255 357.933 59.4768 360.049 64.109C362.241 68.7411 363.336 74.2611 363.336 80.6689V117.263H344.407V83.564C344.407 77.6194 343.122 73.1417 340.553 70.1308C338.06 67.0427 334.395 65.4986 329.558 65.4986C326.158 65.4986 323.211 66.3479 320.717 68.0463C318.224 69.6676 316.297 71.945 314.937 74.8787C313.652 77.8124 313.01 81.3252 313.01 85.4169L306.776 82.0586C307.531 75.1104 309.269 69.243 311.99 64.4564C314.71 59.6698 318.11 56.0027 322.191 53.455C326.347 50.9074 330.956 49.6335 336.019 49.6335ZM386.233 49.6335C391.976 49.6335 396.887 50.9074 400.968 53.455C405.124 55.9255 408.26 59.4768 410.376 64.109C412.567 68.7411 413.663 74.2611 413.663 80.6689V117.263H394.734V83.564C394.734 77.6194 393.449 73.1417 390.88 70.1308C388.386 67.0427 384.721 65.4986 379.885 65.4986C376.485 65.4986 373.538 66.3479 371.044 68.0463C368.55 69.6676 366.623 71.945 365.263 74.8787C363.979 77.8124 363.336 81.3252 363.336 85.4169L357.102 82.0586C357.858 75.1104 359.596 69.243 362.316 64.4564C365.036 59.6698 368.437 56.0027 372.517 53.455C376.674 50.9074 381.245 49.6335 386.233 49.6335Z" fill="#CAE746"></path><path d="M463.382 119C455.75 119 448.911 117.572 442.866 114.715C436.896 111.782 432.173 107.69 428.697 102.44C425.297 97.1903 423.597 91.0913 423.597 84.1431C423.597 77.272 425.221 71.2502 428.471 66.0777C431.796 60.9051 436.329 56.8906 442.072 54.0341C447.815 51.1004 454.352 49.6335 461.682 49.6335C469.163 49.6335 475.586 51.332 480.951 54.7289C486.316 58.0486 490.434 62.7579 493.306 68.8569C496.253 74.9559 497.726 82.1358 497.726 90.3965H438.785V77.5422H487.525L480.157 82.1744C479.855 78.3143 478.911 75.0332 477.324 72.3311C475.812 69.629 473.734 67.5445 471.09 66.0777C468.445 64.6108 465.347 63.8774 461.795 63.8774C457.941 63.8774 454.579 64.688 451.707 66.3093C448.911 67.8533 446.72 70.0536 445.133 72.9101C443.622 75.6894 442.866 78.9705 442.866 82.7534C442.866 87.3084 443.848 91.2071 445.813 94.4496C447.778 97.6921 450.649 100.163 454.427 101.861C458.206 103.559 462.777 104.409 468.143 104.409C472.979 104.409 477.853 103.714 482.764 102.324C487.676 100.857 492.097 98.8115 496.026 96.1866V109.157C491.794 112.245 486.845 114.677 481.178 116.452C475.586 118.151 469.654 119 463.382 119Z" fill="#CAE746"></path><path d="M500.896 65.9619V57.3924L514.384 52.876L522.432 34H533.313V51.3706H561.877V65.9619H533.313V89.9332C533.313 95.0286 534.333 98.6185 536.374 100.703C538.489 102.71 542.117 103.714 547.255 103.714C550.504 103.714 553.376 103.405 555.87 102.787C558.363 102.17 560.743 101.282 563.01 100.124V115.178C560.819 116.105 557.91 116.954 554.283 117.726C550.656 118.575 546.915 119 543.061 119C536.336 119 530.857 117.919 526.626 115.757C522.47 113.519 519.371 110.431 517.331 106.493C515.366 102.556 514.384 97.9623 514.384 92.7125V65.9619H500.896Z" fill="#CAE746"></path><path d="M607.392 119C599.759 119 592.921 117.572 586.876 114.715C580.906 111.782 576.183 107.69 572.707 102.44C569.307 97.1903 567.606 91.0913 567.606 84.1431C567.606 77.272 569.231 71.2502 572.48 66.0777C575.805 60.9051 580.339 56.8906 586.082 54.0341C591.825 51.1004 598.361 49.6335 605.691 49.6335C613.172 49.6335 619.595 51.332 624.961 54.7289C630.326 58.0486 634.444 62.7579 637.315 68.8569C640.262 74.9559 641.736 82.1358 641.736 90.3965H582.795V77.5422H631.535L624.167 82.1744C623.865 78.3143 622.92 75.0332 621.333 72.3311C619.822 69.629 617.744 67.5445 615.099 66.0777C612.454 64.6108 609.356 63.8774 605.805 63.8774C601.951 63.8774 598.588 64.688 595.717 66.3093C592.921 67.8533 590.729 70.0536 589.142 72.9101C587.631 75.6894 586.876 78.9705 586.876 82.7534C586.876 87.3084 587.858 91.2071 589.823 94.4496C591.787 97.6921 594.659 100.163 598.437 101.861C602.215 103.559 606.787 104.409 612.152 104.409C616.988 104.409 621.862 103.714 626.774 102.324C631.686 100.857 636.106 98.8115 640.036 96.1866V109.157C635.804 112.245 630.855 114.677 625.187 116.452C619.595 118.151 613.663 119 607.392 119Z" fill="#CAE746"></path><path d="M689.759 119C681.749 119 674.722 117.572 668.677 114.715C662.631 111.782 657.908 107.728 654.508 102.556C651.108 97.3061 649.407 91.2457 649.407 84.3747C649.407 77.4264 651.108 71.366 654.508 66.1935C657.908 60.9437 662.631 56.8906 668.677 54.0341C674.722 51.1004 681.749 49.6335 689.759 49.6335C697.769 49.6335 704.797 51.1004 710.842 54.0341C716.887 56.8906 721.572 60.9437 724.897 66.1935C728.298 71.366 729.998 77.4264 729.998 84.3747C729.998 91.2457 728.298 97.3061 724.897 102.556C721.572 107.728 716.887 111.782 710.842 114.715C704.797 117.572 697.769 119 689.759 119ZM689.759 104.293C694.142 104.293 697.883 103.482 700.981 101.861C704.155 100.24 706.573 97.9623 708.235 95.0286C709.973 92.0177 710.842 88.4664 710.842 84.3747C710.842 80.2057 709.973 76.6544 708.235 73.7207C706.573 70.7098 704.155 68.3937 700.981 66.7725C697.883 65.1512 694.142 64.3406 689.759 64.3406C685.452 64.3406 681.712 65.1512 678.538 66.7725C675.364 68.3937 672.908 70.7098 671.17 73.7207C669.508 76.6544 668.677 80.2057 668.677 84.3747C668.677 88.4664 669.508 92.0177 671.17 95.0286C672.908 97.9623 675.364 100.24 678.538 101.861C681.712 103.482 685.452 104.293 689.759 104.293Z" fill="#CAE746"></path><path d="M737.747 51.3706H756.903L760.757 75.1104V117.263H741.828V73.0259L737.747 51.3706ZM792.154 50.6757V67.3515C790.19 66.8883 788.225 66.5409 786.26 66.3093C784.295 66.0777 782.444 65.9619 780.706 65.9619C776.928 65.9619 773.527 66.7725 770.505 68.3937C767.482 70.015 765.102 72.5241 763.364 75.921C761.626 79.3179 760.757 83.6026 760.757 88.7752L756.79 83.9114C757.243 79.2021 758.074 74.8015 759.283 70.7098C760.492 66.5409 762.155 62.9124 764.271 59.8243C766.462 56.6589 769.145 54.1885 772.318 52.4128C775.492 50.5599 779.27 49.6335 783.653 49.6335C785.089 49.6335 786.525 49.7493 787.96 49.9809C789.472 50.1353 790.87 50.3669 792.154 50.6757Z" fill="#CAE746"></path><path d="M835.761 119C827.752 119 820.724 117.572 814.679 114.715C808.633 111.782 803.911 107.728 800.51 102.556C797.11 97.3061 795.409 91.2457 795.409 84.3747C795.409 77.4264 797.11 71.366 800.51 66.1935C803.911 60.9437 808.633 56.8906 814.679 54.0341C820.724 51.1004 827.752 49.6335 835.761 49.6335C843.771 49.6335 850.799 51.1004 856.844 54.0341C862.889 56.8906 867.574 60.9437 870.899 66.1935C874.3 71.366 876 77.4264 876 84.3747C876 91.2457 874.3 97.3061 870.899 102.556C867.574 107.728 862.889 111.782 856.844 114.715C850.799 117.572 843.771 119 835.761 119ZM835.761 104.293C840.144 104.293 843.885 103.482 846.983 101.861C850.157 100.24 852.575 97.9623 854.237 95.0286C855.975 92.0177 856.844 88.4664 856.844 84.3747C856.844 80.2057 855.975 76.6544 854.237 73.7207C852.575 70.7098 850.157 68.3937 846.983 66.7725C843.885 65.1512 840.144 64.3406 835.761 64.3406C831.454 64.3406 827.714 65.1512 824.54 66.7725C821.366 68.3937 818.91 70.7098 817.172 73.7207C815.51 76.6544 814.679 80.2057 814.679 84.3747C814.679 88.4664 815.51 92.0177 817.172 95.0286C818.91 97.9623 821.366 100.24 824.54 101.861C827.714 103.482 831.454 104.293 835.761 104.293Z" fill="#CAE746"></path></svg> 